<?xml version="1.0" encoding="UTF-8" standalone="no"?>
<svg
   xmlns:dc="http://purl.org/dc/elements/1.1/"
   xmlns:cc="http://creativecommons.org/ns#"
   xmlns:rdf="http://www.w3.org/1999/02/22-rdf-syntax-ns#"
   xmlns:svg="http://www.w3.org/2000/svg"
   xmlns="http://www.w3.org/2000/svg"
   xmlns:sodipodi="http://sodipodi.sourceforge.net/DTD/sodipodi-0.dtd"
   xmlns:inkscape="http://www.inkscape.org/namespaces/inkscape"
   width="200"
   height="200"
   viewBox="0 0 52.916665 52.916668"
   version="1.1"
   id="svg181"
   inkscape:version="1.0.2 (e86c8708, 2021-01-15)"
   sodipodi:docname="file-formats.svg">
  <defs
     id="defs175" />
  <sodipodi:namedview
     id="base"
     pagecolor="#ffffff"
     bordercolor="#666666"
     borderopacity="1.0"
     inkscape:pageopacity="0.0"
     inkscape:pageshadow="2"
     inkscape:zoom="2.072629"
     inkscape:cx="56.574633"
     inkscape:cy="112.12747"
     inkscape:document-units="mm"
     inkscape:current-layer="layer1"
     inkscape:document-rotation="0"
     showgrid="false"
     units="px"
     inkscape:window-width="1434"
     inkscape:window-height="847"
     inkscape:window-x="0"
     inkscape:window-y="25"
     inkscape:window-maximized="0" />
  <metadata
     id="metadata178">
    <rdf:RDF>
      <cc:Work
         rdf:about="">
        <dc:format>image/svg+xml</dc:format>
        <dc:type
           rdf:resource="http://purl.org/dc/dcmitype/StillImage" />
        <dc:title></dc:title>
      </cc:Work>
    </rdf:RDF>
  </metadata>
  <g
     inkscape:label="Calque 1"
     inkscape:groupmode="layer"
     id="layer1">
    <g
       id="g546"
       transform="matrix(0.06470788,0,0,0.06470788,-3.3196498,19.319196)">
      <path
         d="M 392,488 H 120 A 48,48 0 0 1 72,440 V 72 a 48,48 0 0 1 48,-48 h 224 l 96,96 v 320 a 48,48 0 0 1 -48,48 z"
         fill="#cfd2fc"
         id="path413" />
      <path
         d="m 72,360 h 368 v 80 a 48,48 0 0 1 -48,48 H 120 A 48,48 0 0 1 72,440 Z"
         fill="#5153ff"
         id="path415" />
      <g
         fill="#8690fa"
         id="g489">
        <path
           d="M 440,120 H 392 A 48,48 0 0 1 344,72 V 24 Z"
           id="path417" />
        <circle
           cx="160"
           cy="184"
           r="8"
           id="circle419" />
        <circle
           cx="192"
           cy="184"
           r="8"
           id="circle421" />
        <circle
           cx="224"
           cy="184"
           r="8"
           id="circle423" />
        <circle
           cx="256"
           cy="184"
           r="8"
           id="circle425" />
        <circle
           cx="288"
           cy="184"
           r="8"
           id="circle427" />
        <circle
           cx="320"
           cy="184"
           r="8"
           id="circle429" />
        <circle
           cx="352"
           cy="184"
           r="8"
           id="circle431" />
        <circle
           cx="160"
           cy="152"
           r="8"
           id="circle433" />
        <circle
           cx="192"
           cy="152"
           r="8"
           id="circle435" />
        <circle
           cx="224"
           cy="152"
           r="8"
           id="circle437" />
        <circle
           cx="256"
           cy="152"
           r="8"
           id="circle439" />
        <circle
           cx="288"
           cy="152"
           r="8"
           id="circle441" />
        <circle
           cx="320"
           cy="152"
           r="8"
           id="circle443" />
        <circle
           cx="352"
           cy="152"
           r="8"
           id="circle445" />
        <circle
           cx="160"
           cy="216"
           r="8"
           id="circle447" />
        <circle
           cx="192"
           cy="216"
           r="8"
           id="circle449" />
        <circle
           cx="224"
           cy="216"
           r="8"
           id="circle451" />
        <circle
           cx="256"
           cy="216"
           r="8"
           id="circle453" />
        <circle
           cx="288"
           cy="216"
           r="8"
           id="circle455" />
        <circle
           cx="320"
           cy="216"
           r="8"
           id="circle457" />
        <circle
           cx="352"
           cy="216"
           r="8"
           id="circle459" />
        <circle
           cx="160"
           cy="248"
           r="8"
           id="circle461" />
        <circle
           cx="192"
           cy="248"
           r="8"
           id="circle463" />
        <circle
           cx="224"
           cy="248"
           r="8"
           id="circle465" />
        <circle
           cx="256"
           cy="248"
           r="8"
           id="circle467" />
        <circle
           cx="288"
           cy="248"
           r="8"
           id="circle469" />
        <circle
           cx="320"
           cy="248"
           r="8"
           id="circle471" />
        <circle
           cx="352"
           cy="248"
           r="8"
           id="circle473" />
        <circle
           cx="160"
           cy="280"
           r="8"
           id="circle475" />
        <circle
           cx="192"
           cy="280"
           r="8"
           id="circle477" />
        <circle
           cx="224"
           cy="280"
           r="8"
           id="circle479" />
        <circle
           cx="256"
           cy="280"
           r="8"
           id="circle481" />
        <circle
           cx="288"
           cy="280"
           r="8"
           id="circle483" />
        <circle
           cx="320"
           cy="280"
           r="8"
           id="circle485" />
        <circle
           cx="352"
           cy="280"
           r="8"
           id="circle487" />
      </g>
      <path
         d="m 271.491,389.191 a 8,8 0 0 0 -14.982,0 l -24,64 a 8.0003476,8.0003476 0 0 0 14.982,5.618 L 251.544,448 h 24.912 l 4.054,10.809 a 8,8 0 1 0 14.98,-5.618 z M 257.544,432 264,414.784 270.456,432 Z"
         fill="#ffffff"
         id="path491" />
      <path
         d="m 352,384 h -32 a 8,8 0 0 0 0,16 h 8 v 56 a 8,8 0 0 0 16,0 v -56 h 8 a 8,8 0 0 0 0,-16 z"
         fill="#ffffff"
         id="path493" />
      <path
         d="m 176,384 a 8,8 0 0 0 -8,8 v 64 a 8,8 0 0 0 8,8 40,40 0 0 0 0,-80 z m 8,62.629 v -45.258 a 24,24 0 0 1 0,45.258 z"
         fill="#ffffff"
         id="path495" />
    </g>
    <g
       id="g579"
       transform="matrix(0.06470788,0,0,0.06470788,4.4452958,-0.28832732)">
      <path
         d="M 392,488 H 120 A 48,48 0 0 1 72,440 V 72 a 48,48 0 0 1 48,-48 h 224 l 96,96 v 320 a 48,48 0 0 1 -48,48 z"
         fill="#cfd2fc"
         id="path548" />
      <path
         d="m 72,360 h 368 v 80 a 48,48 0 0 1 -48,48 H 120 A 48,48 0 0 1 72,440 Z"
         fill="#5153ff"
         id="path550" />
      <path
         d="M 440,120 H 392 A 48,48 0 0 1 344,72 V 24 Z"
         fill="#8690fa"
         id="path552" />
      <path
         d="m 352,224 a 8,8 0 0 0 0,-16 h -24 v -32 h 24 a 8,8 0 0 0 0,-16 h -24 v -24 a 8,8 0 0 0 -16,0 v 24 h -48 v -24 a 8,8 0 0 0 -16,0 v 24 h -48 v -24 a 8,8 0 0 0 -16,0 v 24 h -24 a 8,8 0 0 0 0,16 h 24 v 32 h -24 a 8,8 0 0 0 0,16 h 24 v 32 h -24 a 8,8 0 0 0 0,16 h 24 v 24 a 8,8 0 0 0 16,0 v -24 h 48 v 24 a 8,8 0 0 0 16,0 v -24 h 48 v 24 a 8,8 0 0 0 16,0 v -24 h 24 a 8,8 0 0 0 0,-16 h -24 v -32 z m -40,-48 v 32 h -48 v -32 z m -112,0 h 48 v 32 h -48 z m 0,80 v -32 h 48 v 32 z m 112,0 h -48 v -32 h 48 z"
         fill="#8690fa"
         id="path554" />
      <g
         fill="#ffffff"
         id="g562">
        <path
           d="m 256,400 h 16 a 8,8 0 0 0 0,-16 h -16 a 24,24 0 0 0 0,48 8,8 0 0 1 0,16 h -16 a 8,8 0 0 0 0,16 h 16 a 24,24 0 0 0 0,-48 8,8 0 0 1 0,-16 z"
           id="path556" />
        <path
           d="m 337.94,384.239 a 8,8 0 0 0 -9.7,5.821 L 320,423.016 311.761,390.06 a 8,8 0 1 0 -15.522,3.88 l 16,64 a 8,8 0 0 0 15.522,0 l 16,-64 a 8,8 0 0 0 -5.821,-9.701 z"
           id="path558" />
        <path
           d="m 200,400 a 10.675,10.675 0 0 1 4.588,1.058 8.0005422,8.0005422 0 0 0 6.824,-14.473 A 26.587,26.587 0 0 0 200,384 c -17.645,0 -32,17.944 -32,40 0,22.056 14.355,40 32,40 a 26.587,26.587 0 0 0 11.412,-2.585 8.0005422,8.0005422 0 0 0 -6.824,-14.473 A 10.675,10.675 0 0 1 200,448 c -8.673,0 -16,-10.99 -16,-24 0,-13.01 7.327,-24 16,-24 z"
           id="path560" />
      </g>
    </g>
    <g
       id="g624"
       transform="matrix(0.06470788,0,0,0.06470788,22.866788,9.0296074)">
      <path
         d="M 392,488 H 120 A 48,48 0 0 1 72,440 V 72 a 48,48 0 0 1 48,-48 h 224 l 96,96 v 320 a 48,48 0 0 1 -48,48 z"
         fill="#cfd2fc"
         id="path581" />
      <path
         d="m 72,360 h 368 v 80 a 48,48 0 0 1 -48,48 H 120 A 48,48 0 0 1 72,440 Z"
         fill="#5153ff"
         id="path583" />
      <g
         fill="#8690fa"
         id="g597">
        <path
           d="M 440,120 H 392 A 48,48 0 0 1 344,72 V 24 Z"
           id="path585" />
        <path
           d="m 192,272 a 7.974,7.974 0 0 1 -5.657,-2.343 l -48,-48 a 8,8 0 0 1 0,-11.314 l 48,-48 a 8.0002061,8.0002061 0 0 1 11.314,11.314 L 155.313,216 197.657,258.343 A 8,8 0 0 1 192,272 Z"
           id="path587" />
        <path
           d="m 320,272 a 8,8 0 0 1 -5.657,-13.657 L 356.687,216 314.343,173.657 a 8.0002061,8.0002061 0 0 1 11.314,-11.314 l 48,48 a 8,8 0 0 1 0,11.314 l -48,48 A 7.974,7.974 0 0 1 320,272 Z"
           id="path589" />
        <circle
           cx="256"
           cy="216"
           r="8"
           id="circle591" />
        <circle
           cx="288"
           cy="216"
           r="8"
           id="circle593" />
        <circle
           cx="224"
           cy="216"
           r="8"
           id="circle595" />
      </g>
      <path
         d="m 344,448 h -24 v -56 a 8,8 0 0 0 -16,0 v 64 a 8,8 0 0 0 8,8 h 32 a 8,8 0 0 0 0,-16 z"
         fill="#ffffff"
         id="path599" />
      <path
         d="m 203.578,384.845 a 8,8 0 0 0 -10.733,3.577 l -8.845,17.69 -8.845,-17.69 a 8,8 0 0 0 -14.31,7.156 L 175.056,424 160.845,452.422 a 8,8 0 1 0 14.31,7.156 l 8.845,-17.69 8.845,17.69 a 8,8 0 1 0 14.31,-7.156 L 192.944,424 207.155,395.578 a 8,8 0 0 0 -3.577,-10.733 z"
         fill="#ffffff"
         id="path601" />
      <path
         d="m 281.608,384.164 a 7.993,7.993 0 0 0 -8.962,4.685 L 256,427.691 239.354,388.849 A 8,8 0 0 0 224,392 v 64 a 8,8 0 0 0 16,0 v -25.024 l 8.646,20.175 a 8,8 0 0 0 14.708,0 L 272,430.976 V 456 a 8,8 0 0 0 16,0 v -64 a 8,8 0 0 0 -6.392,-7.836 z"
         fill="#ffffff"
         id="path603" />
    </g>
  </g>
</svg>
