<?xml version="1.0" encoding="UTF-8" standalone="no"?>
<svg
   xmlns:dc="http://purl.org/dc/elements/1.1/"
   xmlns:cc="http://creativecommons.org/ns#"
   xmlns:rdf="http://www.w3.org/1999/02/22-rdf-syntax-ns#"
   xmlns:svg="http://www.w3.org/2000/svg"
   xmlns="http://www.w3.org/2000/svg"
   xmlns:xlink="http://www.w3.org/1999/xlink"
   xmlns:sodipodi="http://sodipodi.sourceforge.net/DTD/sodipodi-0.dtd"
   xmlns:inkscape="http://www.inkscape.org/namespaces/inkscape"
   version="1.1"
   id="svg662"
   xml:space="preserve"
   width="183.64973"
   height="257.55197"
   viewBox="0 0 183.64972 257.55197"
   sodipodi:docname="logo.svg"
   inkscape:version="1.0.2 (e86c8708, 2021-01-15)"><metadata
     id="metadata668"><rdf:RDF><cc:Work
         rdf:about=""><dc:format>image/svg+xml</dc:format><dc:type
           rdf:resource="http://purl.org/dc/dcmitype/StillImage" /><dc:title></dc:title></cc:Work></rdf:RDF></metadata><defs
     id="defs666"><clipPath
       clipPathUnits="userSpaceOnUse"
       id="clipPath724"><path
         d="m 4749.1,2914.09 c 122.57,65.36 229.22,179.65 245.07,299.78 28.2,213.9 -108.82,374.85 -283.77,449.05 -208.96,88.65 -69.53,25.16 -868.81,235.62 -384.17,101.15 -408.76,195.45 -400.14,263.42 -103.79,-67.97 -135.67,-438.24 44.24,-549.59 184.94,-114.45 553.42,-138.29 1016.48,-269.86 407.1,-115.69 346.86,-328.86 246.93,-428.42 z"
         id="path722" /></clipPath><linearGradient
       x1="0"
       y1="0"
       x2="1"
       y2="0"
       gradientUnits="userSpaceOnUse"
       gradientTransform="matrix(-2423.08,249.435,249.435,2423.08,5510.07,3392.39)"
       spreadMethod="pad"
       id="linearGradient736"><stop
         style="stop-opacity:1;stop-color:#4ce5ae"
         offset="0"
         id="stop726" /><stop
         style="stop-opacity:1;stop-color:#4ce5ae"
         offset="0.0666667"
         id="stop728" /><stop
         style="stop-opacity:1;stop-color:#1caabc"
         offset="0.684848"
         id="stop730" /><stop
         style="stop-opacity:1;stop-color:#076266"
         offset="0.963636"
         id="stop732" /><stop
         style="stop-opacity:1;stop-color:#076266"
         offset="1"
         id="stop734" /></linearGradient><clipPath
       clipPathUnits="userSpaceOnUse"
       id="clipPath746"><path
         d="m 4831.37,2851.26 c -35.36,20.98 -73.91,38.26 -115.04,51.19 -579.15,132.81 -629.96,130 -822.13,176.71 -523.66,127.34 -460.73,233.41 -474.1,275.75 -96.54,-102.95 -98.18,-424.96 80.8,-521.55 217.06,-117.14 599.01,-155.4 1083.02,-275.95 157.42,-39.2 249.65,-85.98 318.54,-141.39 76.47,-61.52 97.44,-151.43 38.84,-226.85 -51.28,-65.98 -188.3,-55.21 -340.2,-34.02 -269.4,37.56 -610.99,115.8 -706.9,142.39 -430.95,119.46 -460.73,233.41 -474.1,275.73 -96.54,-102.94 -98.18,-424.93 80.8,-521.54 141.9,-76.58 276.6,-120.59 568.53,-138.17 213.83,-12.85 602.24,-24.9 792.48,172.76 18.52,19.21 166.48,131.33 197.08,324.47 28.47,179.51 -70.08,346.98 -227.62,440.47 z"
         id="path744" /></clipPath><linearGradient
       x1="0"
       y1="0"
       x2="1"
       y2="0"
       gradientUnits="userSpaceOnUse"
       gradientTransform="matrix(1708.86,0,0,-1708.86,3355.01,2631.12)"
       spreadMethod="pad"
       id="linearGradient758"><stop
         style="stop-opacity:1;stop-color:#076266"
         offset="0"
         id="stop748" /><stop
         style="stop-opacity:1;stop-color:#076266"
         offset="0.0363636"
         id="stop750" /><stop
         style="stop-opacity:1;stop-color:#1caabc"
         offset="0.315152"
         id="stop752" /><stop
         style="stop-opacity:1;stop-color:#4ce5ae"
         offset="0.933333"
         id="stop754" /><stop
         style="stop-opacity:1;stop-color:#4ce5ae"
         offset="1"
         id="stop756" /></linearGradient><clipPath
       clipPathUnits="userSpaceOnUse"
       id="clipPath768"><path
         d="m 4375.52,2978.37 c -0.05,-0.01 -0.08,-0.02 -0.14,-0.03 173.44,-37.48 340.95,-75.89 340.95,-75.89 2.85,-0.89 5.69,-1.87 8.52,-2.82 8.26,4.64 16.4,9.43 24.28,14.49 99.91,99.57 160.1,312.71 -246.96,428.39 -28.1,7.99 -55.84,15.55 -83.23,22.8 114.12,-46.19 275.25,-296.47 -43.42,-386.94 z"
         id="path766" /></clipPath><linearGradient
       x1="0"
       y1="0"
       x2="1"
       y2="0"
       gradientUnits="userSpaceOnUse"
       gradientTransform="matrix(-296.415,-375.013,-375.013,296.415,4624.36,3189.16)"
       spreadMethod="pad"
       id="linearGradient780"><stop
         style="stop-opacity:1;stop-color:#076266"
         offset="0"
         id="stop770" /><stop
         style="stop-opacity:1;stop-color:#076266"
         offset="0.0363636"
         id="stop772" /><stop
         style="stop-opacity:1;stop-color:#1caabc"
         offset="0.315152"
         id="stop774" /><stop
         style="stop-opacity:1;stop-color:#4ce5ae"
         offset="0.933333"
         id="stop776" /><stop
         style="stop-opacity:1;stop-color:#4ce5ae"
         offset="1"
         id="stop778" /></linearGradient><clipPath
       clipPathUnits="userSpaceOnUse"
       id="clipPath790"><path
         d="m 4482.38,2196.65 c -7.74,-6.22 -15.77,-11.94 -24.06,-17.28 48.65,-9.5 96.77,-17.8 142.78,-24.22 151.9,-21.19 288.92,-31.96 340.2,34.02 58.6,75.42 37.63,165.33 -38.84,226.85 -126.57,101.8 -290.53,136.21 -457.21,174.57 121.83,-55.41 224.08,-243.19 37.13,-393.94 z"
         id="path788" /></clipPath><linearGradient
       x1="0"
       y1="0"
       x2="1"
       y2="0"
       gradientUnits="userSpaceOnUse"
       gradientTransform="matrix(-178.102,-603.326,-603.326,178.102,4711.77,2431.83)"
       spreadMethod="pad"
       id="linearGradient802"><stop
         style="stop-opacity:1;stop-color:#076266"
         offset="0"
         id="stop792" /><stop
         style="stop-opacity:1;stop-color:#076266"
         offset="0.0363636"
         id="stop794" /><stop
         style="stop-opacity:1;stop-color:#1caabc"
         offset="0.315152"
         id="stop796" /><stop
         style="stop-opacity:1;stop-color:#4ce5ae"
         offset="0.933333"
         id="stop798" /><stop
         style="stop-opacity:1;stop-color:#4ce5ae"
         offset="1"
         id="stop800" /></linearGradient><linearGradient
       inkscape:collect="always"
       xlink:href="#linearGradient758"
       id="linearGradient1775"
       gradientUnits="userSpaceOnUse"
       gradientTransform="matrix(1708.86,0,0,-1708.86,3355.01,2631.12)"
       x1="0"
       y1="0"
       x2="1"
       y2="0"
       spreadMethod="pad" /></defs><sodipodi:namedview
     pagecolor="#ffffff"
     bordercolor="#666666"
     borderopacity="1"
     objecttolerance="10"
     gridtolerance="10"
     guidetolerance="10"
     inkscape:pageopacity="0"
     inkscape:pageshadow="2"
     inkscape:window-width="1440"
     inkscape:window-height="847"
     id="namedview664"
     showgrid="false"
     fit-margin-top="0"
     fit-margin-left="0"
     fit-margin-right="0"
     fit-margin-bottom="0"
     lock-margins="true"
     inkscape:zoom="0.88238406"
     inkscape:cx="480.46275"
     inkscape:cy="304.11593"
     inkscape:window-x="0"
     inkscape:window-y="25"
     inkscape:window-maximized="1"
     inkscape:current-layer="g672" /><g
     id="g670"
     inkscape:groupmode="layer"
     inkscape:label="ink_ext_XXXXXX"
     transform="matrix(1.3333333,0,0,-1.3333333,-57.482404,712.45577)"><g
       id="g672"
       transform="scale(0.1)"><g
         id="g718"><g
           id="g720"
           clip-path="url(#clipPath724)" /></g><g
         id="g1719"
         transform="matrix(0.80601801,0,0,0.8567442,-2273.0844,1777.6833)"><path
           d="m 4749.1,2914.09 c 122.57,65.36 229.22,179.65 245.07,299.78 28.2,213.9 -108.82,374.85 -283.77,449.05 -208.96,88.65 -69.53,25.16 -868.81,235.62 -384.17,101.15 -408.76,195.45 -400.14,263.42 -103.79,-67.97 -135.67,-438.24 44.24,-549.59 184.94,-114.45 553.42,-138.29 1016.48,-269.86 407.1,-115.69 346.86,-328.86 246.93,-428.42"
           style="fill:url(#linearGradient736);fill-opacity:1;fill-rule:nonzero;stroke:none"
           id="path738" /><g
           id="g740"><g
             id="g742"
             clip-path="url(#clipPath746)"><path
               d="m 4831.37,2851.26 c -35.36,20.98 -73.91,38.26 -115.04,51.19 -579.15,132.81 -629.96,130 -822.13,176.71 -523.66,127.34 -460.73,233.41 -474.1,275.75 -96.54,-102.95 -98.18,-424.96 80.8,-521.55 217.06,-117.14 599.01,-155.4 1083.02,-275.95 157.42,-39.2 249.65,-85.98 318.54,-141.39 76.47,-61.52 97.44,-151.43 38.84,-226.85 -51.28,-65.98 -188.3,-55.21 -340.2,-34.02 -269.4,37.56 -610.99,115.8 -706.9,142.39 -430.95,119.46 -460.73,233.41 -474.1,275.73 -96.54,-102.94 -98.18,-424.93 80.8,-521.54 141.9,-76.58 276.6,-120.59 568.53,-138.17 213.83,-12.85 602.24,-24.9 792.48,172.76 18.52,19.21 166.48,131.33 197.08,324.47 28.47,179.51 -70.08,346.98 -227.62,440.47"
               style="fill:url(#linearGradient1775);fill-opacity:1;fill-rule:nonzero;stroke:none"
               id="path760" /></g></g><g
           id="g762"><g
             id="g764"
             clip-path="url(#clipPath768)"><path
               d="m 4375.52,2978.37 c -0.05,-0.01 -0.08,-0.02 -0.14,-0.03 173.44,-37.48 340.95,-75.89 340.95,-75.89 2.85,-0.89 5.69,-1.87 8.52,-2.82 8.26,4.64 16.4,9.43 24.28,14.49 99.91,99.57 160.1,312.71 -246.96,428.39 -28.1,7.99 -55.84,15.55 -83.23,22.8 114.12,-46.19 275.25,-296.47 -43.42,-386.94"
               style="fill:url(#linearGradient780);fill-opacity:1;fill-rule:nonzero;stroke:none"
               id="path782" /></g></g><g
           id="g784"><g
             id="g786"
             clip-path="url(#clipPath790)"><path
               d="m 4482.38,2196.65 c -7.74,-6.22 -15.77,-11.94 -24.06,-17.28 48.65,-9.5 96.77,-17.8 142.78,-24.22 151.9,-21.19 288.92,-31.96 340.2,34.02 58.6,75.42 37.63,165.33 -38.84,226.85 -126.57,101.8 -290.53,136.21 -457.21,174.57 121.83,-55.41 224.08,-243.19 37.13,-393.94"
               style="fill:url(#linearGradient802);fill-opacity:1;fill-rule:nonzero;stroke:none"
               id="path804" /></g></g></g></g></g></svg>
